<svg width="48" height="52" viewBox="0 0 48 52" fill="none" xmlns="http://www.w3.org/2000/svg">
<g clip-path="url(#clip0_305_2)">
<path d="M24.1524 0.0878169L29.3452 3.09642C29.5942 2.8378 29.9431 2.67687 30.3299 2.67687C31.0858 2.67687 31.6987 3.29197 31.6987 4.0508C31.6987 4.18214 31.6804 4.30903 31.6461 4.42934C36.5772 7.28571 41.5079 10.1419 46.4378 13V24.363C47.0461 24.5029 47.5 25.0493 47.5 25.7021C47.5 26.3549 47.0463 26.9014 46.4378 27.0414V39C41.5067 41.856 36.5766 44.7133 31.6461 47.5703C31.68 47.6902 31.6985 47.8169 31.6985 47.948C31.6985 48.7067 31.0856 49.3218 30.3297 49.3218C29.9434 49.3218 29.5948 49.1612 29.3458 48.903L24.0001 52L18.6542 48.9032C18.4052 49.1614 18.0566 49.322 17.6703 49.322C16.9144 49.322 16.3015 48.7069 16.3015 47.9482C16.3015 47.8171 16.3198 47.6904 16.3539 47.5703C11.4234 44.7133 6.49366 41.8562 1.56239 39.0002V27.0416C0.953904 26.9018 0.5 26.3551 0.5 25.7023C0.5 25.0495 0.953711 24.5031 1.56239 24.3632V13.0002C6.49231 10.1421 11.423 7.28532 16.3539 4.42895C16.32 4.30883 16.3015 4.18214 16.3015 4.05099C16.3015 3.29217 16.9144 2.67706 17.6703 2.67706C18.0567 2.67706 18.4056 2.838 18.6546 3.09622L24.0001 0L24.1522 0.0880103L24.1524 0.0878169ZM36.6593 35.5717C37.2208 35.5717 37.7032 35.9109 37.9144 36.3962H39.6262L45.1996 26.7083C44.9306 26.4575 44.7623 26.0996 44.7623 25.7019C44.7623 25.3044 44.9308 24.9466 45.1996 24.6957L39.6262 15.0076H38.0276C38.028 15.0227 38.0283 15.0378 38.0283 15.0531C38.0283 15.8117 37.4154 16.4268 36.6595 16.4268C36.5192 16.4268 36.3839 16.4055 36.2563 16.3663C34.602 19.2418 32.9483 22.1179 31.2938 24.9932C31.5627 25.2441 31.7309 25.6019 31.7309 25.9994C31.7309 26.3967 31.5629 26.7548 31.294 27.0056C32.9489 29.8808 34.6037 32.7561 36.2571 35.6322C36.3845 35.5929 36.5196 35.5719 36.6595 35.5719L36.6593 35.5717ZM38.0266 37.0119C37.9921 37.7398 37.3931 38.3193 36.6593 38.3193C36.519 38.3193 36.3837 38.298 36.2561 38.2588C34.5912 41.1529 32.9267 44.0475 31.2614 46.9414C31.2924 46.9704 31.3223 47.001 31.3506 47.0329L45.8247 38.646V27.0412C45.7921 27.0335 45.7597 27.025 45.7281 27.0153C43.8113 30.3475 41.8949 33.6801 39.9773 37.0119H38.0268H38.0266ZM35.7278 37.952C35.4738 37.7152 35.3097 37.3827 35.292 37.0119H26.9664L23.9997 31.8547C23.0108 33.5737 22.022 35.2927 21.0334 37.0119H12.7084C12.6908 37.3829 12.5266 37.715 12.2726 37.952L17.2682 46.6343C17.3955 46.595 17.5306 46.5741 17.6703 46.5741C18.321 46.5741 18.8653 47.0294 19.0048 47.6401H28.995C29.1345 47.0296 29.6788 46.5741 30.3295 46.5741C30.4696 46.5741 30.6049 46.5954 30.7325 46.6347L35.7276 37.952H35.7278ZM35.4042 36.3962C35.4799 36.222 35.5907 36.0666 35.7278 35.9392L30.7649 27.3124C30.6375 27.3517 30.5022 27.373 30.3619 27.373C29.7312 27.373 29.2002 26.9451 29.0414 26.3629H27.1597L24.3526 31.2412L27.3189 36.3962H35.4044H35.4042ZM11.3411 35.5717C11.4812 35.5717 11.6165 35.5931 11.7441 35.6322C13.3982 32.7565 15.0515 29.8806 16.7062 27.0053C16.4377 26.7544 16.2697 26.3965 16.2697 25.9994C16.2697 25.6021 16.4377 25.2445 16.7064 24.9936C15.0517 22.1181 13.3984 19.242 11.7441 16.3664C11.6165 16.4057 11.4812 16.427 11.3411 16.427C10.5852 16.427 9.97224 15.8119 9.97224 15.0533C9.97224 15.038 9.97263 15.0229 9.97301 15.0078H8.37519L5.29866 20.3548L2.80094 24.6957C3.06981 24.9466 3.23827 25.3046 3.23827 25.7021C3.23827 26.0998 3.06981 26.4577 2.80094 26.7085L8.37519 36.3964H10.0861C10.2972 35.9111 10.7796 35.5719 11.3413 35.5719L11.3411 35.5717ZM12.2726 35.9392C12.4094 36.0668 12.5203 36.2222 12.5962 36.3962H20.6823L23.6472 31.2423L20.8403 26.3629H18.9586C18.7998 26.9451 18.2688 27.373 17.6381 27.373C17.4982 27.373 17.3631 27.3519 17.2359 27.3126L14.7701 31.598L12.2724 35.939L12.2726 35.9392ZM11.7441 38.2588C11.6165 38.298 11.4812 38.3193 11.3411 38.3193C10.6073 38.3193 10.0083 37.7398 9.97378 37.0119H8.02248C6.10451 33.6801 4.18906 30.3473 2.27225 27.0153C2.24045 27.025 2.20845 27.0337 2.17588 27.0412V38.646L16.6497 47.0327C16.6781 47.001 16.7078 46.9708 16.7386 46.9418C15.0733 44.0477 13.4092 41.1531 11.7443 38.2588H11.7441ZM36.6593 13.6791C37.1766 13.6791 37.6269 13.9671 37.8595 14.3919H39.9771C41.8949 17.7237 43.8125 21.0558 45.7285 24.3885C45.7601 24.3789 45.7921 24.3702 45.8247 24.3628V13.3536L34.9127 7.03058L31.3503 4.9663C31.3221 4.99783 31.2924 5.0282 31.2616 5.05682C32.9271 7.95072 34.5927 10.8448 36.2569 13.7395C36.3843 13.7002 36.5196 13.6793 36.6595 13.6793L36.6593 13.6791ZM35.7278 16.0591C35.4589 15.8084 35.2905 15.4504 35.2905 15.0529C35.2905 15.0376 35.2908 15.0223 35.2912 15.0074H27.3189L24.3532 20.1617C25.4031 21.9861 26.4527 23.8106 27.5018 25.6354H29.0418C29.2006 25.0532 29.7316 24.6255 30.3621 24.6255C30.5022 24.6255 30.6375 24.6468 30.7651 24.686L35.728 16.0591H35.7278ZM35.4591 14.3917C35.53 14.2625 35.6208 14.1461 35.7276 14.0463L30.7327 5.3636C30.6051 5.40287 30.4698 5.42415 30.3297 5.42415C29.679 5.42415 29.1345 4.96881 28.9952 4.35796H19.005C18.8657 4.96862 18.3212 5.42415 17.6705 5.42415C17.5306 5.42415 17.3955 5.40287 17.2682 5.3638L14.7703 9.70512L12.2726 14.0461C12.3794 14.1457 12.4704 14.2621 12.5413 14.3915H21.0334C22.0218 16.1107 23.011 17.8293 24.0001 19.548L26.9664 14.3915H35.4591V14.3917ZM11.3413 13.6789C11.4814 13.6789 11.6167 13.7002 11.7443 13.7393C13.4092 10.845 15.0735 7.95033 16.7386 5.05644C16.7079 5.02762 16.6785 4.99763 16.6505 4.9661L2.17607 13.3534V24.3626C2.20865 24.3702 2.24083 24.3787 2.27244 24.3883C4.18925 21.0559 6.10509 17.7235 8.02286 14.3917H10.1411C10.3739 13.967 10.824 13.6789 11.3413 13.6789V13.6789ZM12.7095 15.0072C12.7099 15.0223 12.7103 15.0374 12.7103 15.0527C12.7103 15.4502 12.5421 15.8082 12.2732 16.0589L17.2366 24.6855C17.3638 24.6462 17.4988 24.6253 17.6387 24.6253C18.2691 24.6253 18.8001 25.053 18.959 25.6352H20.499L20.5485 25.5489L23.6476 20.1613L20.6826 15.0072H12.7095ZM29.0295 48.3776C29.0164 48.3376 29.005 48.2966 28.9956 48.255H19.0054C18.9958 48.2966 18.9844 48.3374 18.9715 48.3775L24.0007 51.2917L29.0297 48.3776H29.0295ZM28.9956 3.74266C29.005 3.70146 29.0164 3.66084 29.0295 3.62119L24.0007 0.707178L18.9717 3.62119C18.9848 3.66084 18.9962 3.70146 19.0056 3.74266H28.9957H28.9956ZM21.2042 25.6352H26.7968L24.0007 20.7749L21.204 25.6352H21.2042ZM26.4548 26.3627H21.5463L24.0009 30.6286L26.455 26.3627H26.4548Z" fill="white"/>
</g>
<defs>
<clipPath id="clip0_305_2">
<rect width="48" height="52" fill="white"/>
</clipPath>
</defs>
</svg>
