<?xml version="1.0" encoding="UTF-8"?>
<!DOCTYPE svg PUBLIC "-//W3C//DTD SVG 1.1//EN" "http://www.w3.org/Graphics/SVG/1.1/DTD/svg11.dtd">
<!-- Creator: CorelDRAW 2021 (64-Bit) -->
<svg xmlns="http://www.w3.org/2000/svg" xml:space="preserve" width="61.4426mm" height="51.9796mm" version="1.1" style="shape-rendering:geometricPrecision; text-rendering:geometricPrecision; image-rendering:optimizeQuality; fill-rule:evenodd; clip-rule:evenodd"
viewBox="0 0 2520.03 2131.91"
 xmlns:xlink="http://www.w3.org/1999/xlink"
 xmlns:xodm="http://www.corel.com/coreldraw/odm/2003">
 <defs>
  <style type="text/css">
   <![CDATA[
    .fil0 {fill:#0F4C81}
    .fil1 {fill:#0F4C81;fill-rule:nonzero}
   ]]>
  </style>
 </defs>
 <g id="Слой_x0020_1">
  <metadata id="CorelCorpID_0Corel-Layer"/>
  <g id="_2857602684080">
   <path class="fil0" d="M1591.22 1703.35l0 422.75 67.89 0 0 -335.32c3.61,2.41 16.03,19.16 19.54,23.66l96.83 121.23c3.35,4.19 5.96,7.87 9.44,12.16l29.27 36.56c32.19,39.35 64.33,81.82 96.69,121.37 7.1,8.68 12.63,17.52 21.87,22.36 10.48,5.48 24.28,4.57 33.89,-1.02 8.87,-5.16 17.51,-16.2 17.51,-26.72l0 -430.98 -67.89 0 0 336.35c-2.32,-1.7 -6.62,-7.83 -8.81,-10.74 -20.66,-27.46 -47.49,-60.01 -69.37,-88.01l-147.22 -187.07c-10.81,-13.54 -33.64,-46.3 -45.09,-53.66 -10.56,-6.78 -25.2,-7.3 -36.4,-0.33 -13,8.1 -18.16,20.1 -18.16,37.39z"/>
   <path class="fil0" d="M1017.27 2126.09l77.14 0c0.32,-3.82 22.87,-54.98 26.3,-63.19l80.96 -189.56c6.13,-14.3 11.53,-27.59 17.88,-41.78 2.26,-5.05 15.2,-39.14 18.87,-41.82l70.62 168.01c6.31,14.14 11.73,27.99 17.81,41.85 6.11,13.92 11.69,27.69 17.8,41.86 6.23,14.44 11.51,27.45 17.63,42.03l18.08 42.61 77.14 0 -25.13 -59.22c-32.98,-78.73 -68.86,-159.73 -101.24,-238.19 -15.83,-38.34 -36.1,-82.28 -50.99,-119.75 -10.4,-26.17 -15.28,-45.71 -43.78,-45.71 -25.34,0 -32.91,25.52 -40.56,43.79l-51.14 119.61c-4.02,9.73 -8.33,19.26 -12.64,29.53 -15.12,36.1 -114.28,264.17 -114.76,269.93z"/>
   <path class="fil0" d="M967.9 1669.4l-74.06 0 -8.81 21.01c-3.24,7.73 -6.05,13.92 -9.27,21.59l-54.6 128.49c-21.57,48.24 -42.1,101.45 -63.77,150.17 -1.77,3.97 -3.01,6.94 -4.61,10.82l-5 10.43c-1.5,-6.45 -14.26,-34.78 -17.77,-42.91l-127.26 -299.61 -74.06 0 76.4 178.69c24.65,57.53 52.97,121.89 76.71,179.41 3.89,9.41 34.37,82.28 38.78,88.76 13.71,20.14 48.25,25.29 63.34,-11.62l183.97 -435.24z"/>
   <polygon class="fil0" points="2132.26,1738.32 2291.69,1738.32 2291.69,2126.09 2360.61,2126.09 2360.61,1738.32 2520.04,1738.32 2520.04,1669.4 2132.26,1669.4 "/>
   <path class="fil0" d="M79.2 1893.63c0,23.13 11.77,29.77 25.97,43.97l73.5 75.65c7.69,9.21 16.08,17.02 24.73,25.67l73.56 75.58c11.59,12.04 5.34,11.68 21.32,11.6l83.32 -0 -82.55 -86.14c-4.88,-4.88 -8.99,-9.03 -13.89,-13.89l-34.99 -35.99c-2.72,-2.94 -3.6,-4.71 -6.66,-7.74 -8.56,-8.45 -20.84,-19.4 -27.96,-28.61l-28.13 -28.44c-2.78,-2.81 -3.44,-4.45 -6.13,-7.24l-21.88 -21.32c3.96,-5.91 8.2,-9.74 13.11,-14.65l74.56 -77.67c2.44,-2.64 4.63,-4.61 7.21,-7.19l109.03 -113.14c4.22,-4.22 11.14,-10.18 14.14,-14.66l-81.27 -0.01c-8.4,-0.07 -8.72,-1.31 -13.16,3.3 -5.59,5.81 -10.68,10.78 -16.41,16.51 -43.07,43.07 -85.38,88.72 -129.09,132.17 -3.32,3.3 -4.27,4.63 -7.24,8.18l-24.64 24.74c-10,9.99 -26.49,24.26 -26.49,39.34z"/>
   <polygon class="fil0" points="-0,2126.09 67.89,2126.09 67.89,1669.4 -0,1669.4 "/>
   <path class="fil0" d="M1199.33 1983.12c0,4.89 1.62,11.97 3.08,15.44 6.13,14.61 20.12,23.65 37.04,23.65 24.95,0 45.96,-28.52 33.28,-54.89 -3.86,-8.03 -10.42,-14.71 -18.5,-18.53 -26.09,-12.33 -54.89,8.36 -54.89,34.32z"/>
   <path class="fil1" d="M1240.88 2.42l142.6 82.32c6.84,-7.07 16.42,-11.48 27.04,-11.48 20.76,0 37.59,16.83 37.59,37.59 0,3.59 -0.5,7.07 -1.44,10.36 135.41,78.16 270.82,156.32 406.21,234.52l0 310.93c16.71,3.83 29.17,18.78 29.17,36.65 0,17.87 -12.46,32.82 -29.17,36.65l0 327.23c-135.41,78.15 -270.81,156.33 -406.2,234.51 0.94,3.29 1.44,6.75 1.44,10.34 0,20.76 -16.83,37.59 -37.59,37.59 -10.61,0 -20.18,-4.39 -27.02,-11.46l-146.8 84.74 -146.8 -84.74c-6.84,7.07 -16.41,11.46 -27.02,11.46 -20.76,0 -37.59,-16.83 -37.59,-37.59 0,-3.58 0.5,-7.05 1.44,-10.34 -135.4,-78.17 -270.78,-156.36 -406.2,-234.51l0 -327.23c-16.71,-3.83 -29.17,-18.78 -29.17,-36.65 0,-17.87 12.46,-32.82 29.17,-36.65l0 -310.93c135.38,-78.21 270.79,-156.38 406.2,-234.54 -0.94,-3.29 -1.44,-6.76 -1.44,-10.34 0,-20.76 16.83,-37.59 37.59,-37.59 10.61,0 20.2,4.4 27.03,11.47l146.79 -84.72 4.18 2.41zm343.46 970.97c15.42,0 28.66,9.29 34.46,22.57l47.01 0 153.06 -265.1c-7.39,-6.86 -12.01,-16.66 -12.01,-27.54 0,-10.88 4.63,-20.67 12.01,-27.54l-153.06 -265.11 -43.9 0c0.01,0.41 0.02,0.82 0.02,1.24 0,20.76 -16.83,37.59 -37.59,37.59 -3.85,0 -7.57,-0.58 -11.07,-1.66 -45.43,78.69 -90.84,157.38 -136.28,236.06 7.39,6.87 12,16.66 12,27.54 0,10.87 -4.62,20.67 -12,27.53 45.44,78.68 90.89,157.35 136.29,236.05 3.49,-1.07 7.21,-1.65 11.05,-1.65zm37.55 39.41c-0.95,19.92 -17.4,35.78 -37.55,35.78 -3.85,0 -7.57,-0.58 -11.07,-1.66 -45.72,79.19 -91.43,158.4 -137.16,237.59 0.85,0.8 1.68,1.63 2.45,2.5l397.48 -229.5 0 -317.55c-0.9,-0.21 -1.78,-0.44 -2.65,-0.71 -52.65,91.18 -105.27,182.37 -157.93,273.55l-53.56 0zm-63.13 25.72c-6.97,-6.48 -11.48,-15.58 -11.96,-25.72l-228.64 0 -81.46 -141.12c-27.16,47.04 -54.32,94.07 -81.46,141.12l-228.62 0c-0.48,10.15 -4.99,19.24 -11.96,25.72l137.19 237.58c3.49,-1.07 7.2,-1.65 11.05,-1.65 17.87,0 32.82,12.46 36.65,29.17l274.35 0c3.83,-16.71 18.78,-29.17 36.64,-29.17 3.86,0 7.57,0.58 11.07,1.66l137.17 -237.59zm-8.88 -42.57c2.08,-4.77 5.12,-9.02 8.88,-12.51l-136.28 -236.05c-3.5,1.08 -7.22,1.66 -11.07,1.66 -17.32,0 -31.9,-11.71 -36.26,-27.64l-51.68 0 -77.08 133.49 81.45 141.07 222.04 0zm-660.81 -22.57c3.85,0 7.56,0.58 11.07,1.66 45.42,-78.69 90.83,-157.39 136.27,-236.07 -7.37,-6.86 -11.99,-16.66 -11.99,-27.52 0,-10.87 4.62,-20.66 12,-27.53 -45.44,-78.68 -90.84,-157.38 -136.27,-236.07 -3.5,1.08 -7.21,1.66 -11.07,1.66 -20.76,0 -37.59,-16.83 -37.59,-37.59 0,-0.42 0.01,-0.83 0.02,-1.24l-43.89 0 -84.49 146.31 -68.59 118.79c7.39,6.86 12.01,16.66 12.01,27.54 0,10.88 -4.63,20.67 -12.01,27.54l153.08 265.1 46.99 0c5.8,-13.28 19.05,-22.57 34.46,-22.57zm25.58 10.06c3.76,3.49 6.8,7.75 8.88,12.51l222.06 0 81.43 -141.03 -77.08 -133.52 -51.67 0c-4.36,15.93 -18.94,27.64 -36.26,27.64 -3.85,0 -7.55,-0.58 -11.05,-1.65l-67.71 117.26 -68.59 118.79zm-14.52 63.47c-3.5,1.07 -7.21,1.66 -11.07,1.66 -20.15,0 -36.6,-15.86 -37.55,-35.78l-53.59 0c-52.67,-91.17 -105.27,-182.37 -157.91,-273.55 -0.87,0.27 -1.75,0.5 -2.65,0.71l0 317.55 397.48 229.5c0.78,-0.87 1.59,-1.7 2.44,-2.49 -45.74,-79.19 -91.43,-158.4 -137.15,-237.6zm684.21 -672.59c14.2,0 26.57,7.88 32.96,19.5l58.15 0c52.66,91.18 105.33,182.35 157.94,273.55 0.87,-0.27 1.75,-0.5 2.64,-0.71l0 -301.26 -299.66 -173.02 -97.83 -56.49c-0.77,0.86 -1.59,1.69 -2.43,2.48 45.74,79.19 91.47,158.38 137.18,237.59 3.49,-1.07 7.21,-1.65 11.05,-1.65zm-25.58 65.13c-7.38,-6.87 -12.01,-16.66 -12.01,-27.54 0,-0.42 0.01,-0.83 0.02,-1.24l-218.94 0 -81.45 141.04c28.83,49.92 57.66,99.85 86.47,149.78l42.29 0c4.36,-15.93 18.94,-27.64 36.26,-27.64 3.85,0 7.57,0.58 11.07,1.66l136.29 -236.06zm-7.37 -45.63c1.94,-3.54 4.44,-6.72 7.37,-9.45l-137.17 -237.59c-3.5,1.07 -7.21,1.66 -11.07,1.66 -17.86,0 -32.82,-12.46 -36.64,-29.17l-274.35 0c-3.82,16.71 -18.78,29.17 -36.65,29.17 -3.84,0 -7.55,-0.58 -11.05,-1.65l-68.6 118.79 -68.59 118.79c2.93,2.73 5.43,5.92 7.37,9.45l233.21 0c27.14,47.04 54.3,94.07 81.47,141.1l81.45 -141.1 233.23 0zm-662.32 -19.5c3.85,0 7.57,0.58 11.07,1.66 45.72,-79.2 91.43,-158.41 137.15,-237.6 -0.84,-0.78 -1.65,-1.61 -2.42,-2.46l-397.49 229.5 0 301.26c0.89,0.21 1.78,0.44 2.64,0.71 52.64,-91.19 105.25,-182.37 157.92,-273.55l58.17 0c6.39,-11.62 18.76,-19.5 32.96,-19.5zm37.57 36.35c0.01,0.41 0.02,0.82 0.02,1.24 0,10.88 -4.63,20.68 -12.01,27.54l136.3 236.05c3.49,-1.07 7.2,-1.65 11.05,-1.65 17.31,0 31.89,11.71 36.26,27.64l42.29 0 1.36 -2.36 85.11 -147.43 -81.43 -141.04 -218.96 0zm448.17 913.14c-0.36,-1.1 -0.67,-2.21 -0.93,-3.35l-274.35 0c-0.26,1.14 -0.57,2.26 -0.94,3.35l138.11 79.74 138.1 -79.74zm-0.93 -1221.38c0.26,-1.13 0.57,-2.24 0.93,-3.33l-138.1 -79.74 -138.1 79.74c0.36,1.09 0.67,2.2 0.93,3.33l274.35 0zm-213.97 599.06l153.59 0 -76.79 -133 -76.8 133zm144.19 19.9l-134.8 0 67.4 116.74 67.39 -116.74z"/>
  </g>
 </g>
</svg>
