<svg width="165" height="52" viewBox="0 0 165 52" fill="none" xmlns="http://www.w3.org/2000/svg">
<g clip-path="url(#clip0_303_26)">
<path fill-rule="evenodd" clip-rule="evenodd" d="M127.586 17.7212V34.8803H130.341V21.2699C130.488 21.3678 130.992 22.0476 131.135 22.2303L135.065 27.1509C135.201 27.3209 135.307 27.4703 135.448 27.6444L136.636 29.1284C137.943 30.7256 139.247 32.4494 140.561 34.0547C140.849 34.407 141.073 34.7658 141.448 34.9622C141.874 35.1847 142.434 35.1477 142.824 34.9208C143.184 34.7114 143.535 34.2633 143.535 33.8363V16.3432H140.779V29.9954C140.685 29.9264 140.51 29.6775 140.421 29.5594C139.583 28.4449 138.494 27.1237 137.606 25.9872L131.63 18.3942C131.191 17.8446 130.265 16.5149 129.8 16.2162C129.371 15.941 128.777 15.9199 128.323 16.2028C127.795 16.5316 127.585 17.0186 127.585 17.7204L127.586 17.7212Z" fill="#0F4C81"/>
<path fill-rule="evenodd" clip-rule="evenodd" d="M104.29 34.8801H107.421C107.434 34.725 108.349 32.6485 108.488 32.3152L111.775 24.6212C112.023 24.0408 112.243 23.5013 112.5 22.9254C112.592 22.7204 113.117 21.3367 113.266 21.2279L116.133 28.0473C116.389 28.6212 116.609 29.1834 116.856 29.746C117.104 30.311 117.33 30.8699 117.578 31.445C117.831 32.0311 118.045 32.5592 118.294 33.151L119.027 34.8805H122.158L121.138 32.4768C119.8 29.2812 118.344 25.9935 117.029 22.8089C116.387 21.2527 115.564 19.4692 114.96 17.9483C114.537 16.8861 114.339 16.093 113.183 16.093C112.154 16.093 111.847 17.1289 111.536 17.8704L109.461 22.7253C109.297 23.1202 109.122 23.507 108.948 23.9239C108.334 25.3891 104.309 34.6463 104.29 34.8801H104.29Z" fill="#0F4C81"/>
<path fill-rule="evenodd" clip-rule="evenodd" d="M102.286 16.3432H99.2803L98.9227 17.196C98.7912 17.5097 98.6772 17.761 98.5465 18.0723L96.3303 23.2876C95.4548 25.2456 94.6215 27.4053 93.7419 29.3828C93.6701 29.5439 93.6198 29.6645 93.5548 29.822L93.3519 30.2453C93.291 29.9835 92.7731 28.8336 92.6306 28.5037L87.4653 16.3428H84.4592L87.5602 23.5956C88.5608 25.9307 89.7102 28.543 90.6738 30.8777C90.8317 31.2596 92.0689 34.2174 92.2479 34.4804C92.8043 35.2978 94.2063 35.5069 94.8188 34.0087L102.286 16.3428L102.286 16.3432Z" fill="#0F4C81"/>
<path fill-rule="evenodd" clip-rule="evenodd" d="M149.546 19.1407H156.017V34.8799H158.815V19.1407H165.286V16.3433H149.546V19.1407Z" fill="#0F4C81"/>
<path fill-rule="evenodd" clip-rule="evenodd" d="M66.2148 25.4448C66.2148 26.3836 66.6925 26.6531 67.2689 27.2295L70.2521 30.3001C70.5643 30.6739 70.9048 30.9909 71.2559 31.342L74.2416 34.4097C74.7121 34.8984 74.4584 34.8838 75.107 34.8805H78.4889L75.1383 31.3842C74.9402 31.1861 74.7734 31.0177 74.5745 30.8204L73.1543 29.3596C73.0439 29.2403 73.0081 29.1684 72.8839 29.0455C72.5365 28.7025 72.0381 28.258 71.7491 27.8842L70.6073 26.7299C70.4945 26.6158 70.4677 26.5492 70.3585 26.436L69.4704 25.5706C69.6311 25.3307 69.8032 25.1753 70.0025 24.976L73.0288 21.8235C73.1279 21.7163 73.2168 21.6363 73.3215 21.5316L77.7469 16.9394C77.9182 16.7681 78.1991 16.5262 78.3208 16.3443L75.0222 16.3439C74.6812 16.3411 74.6682 16.2908 74.488 16.4779C74.2611 16.7137 74.0545 16.9154 73.822 17.148C72.0738 18.8962 70.3565 20.7491 68.5823 22.5127C68.4476 22.6466 68.409 22.7006 68.2885 22.8447L67.2883 23.8488C66.8824 24.2543 66.2131 24.8335 66.2131 25.4456L66.2148 25.4448Z" fill="#0F4C81"/>
<path fill-rule="evenodd" clip-rule="evenodd" d="M63 34.8799H65.7556V16.3433H63V34.8799Z" fill="#0F4C81"/>
<path fill-rule="evenodd" clip-rule="evenodd" d="M111.68 29.0762C111.68 29.2746 111.745 29.5619 111.805 29.7027C112.053 30.2955 112.621 30.6622 113.307 30.6622C114.32 30.6622 115.172 29.5051 114.658 28.4352C114.501 28.1094 114.235 27.8384 113.907 27.6834C112.849 27.1831 111.68 28.0226 111.68 29.0758L111.68 29.0762Z" fill="#0F4C81"/>
<path d="M23.1486 0.0880737L28.2309 3.09646C28.4747 2.83809 28.8161 2.67693 29.1946 2.67693C29.9345 2.67693 30.5343 3.29198 30.5343 4.05066C30.5343 4.18185 30.5165 4.30903 30.483 4.42926C35.309 7.28563 40.1351 10.142 44.9604 12.9998V24.3628C45.5559 24.5027 46 25.0491 46 25.7022C46 26.3552 45.5559 26.9016 44.9604 27.0415V39.0002C40.1343 41.8562 35.3087 44.7133 30.4834 47.5704C30.5169 47.6906 30.5347 47.8171 30.5347 47.9482C30.5347 48.7069 29.9349 49.322 29.195 49.322C28.8168 49.322 28.4757 49.1615 28.232 48.9032L23 52L17.768 48.9032C17.5243 49.1615 17.1832 49.322 16.805 49.322C16.0651 49.322 15.4653 48.7069 15.4653 47.9482C15.4653 47.8174 15.4831 47.6906 15.5166 47.5704C10.691 44.7136 5.86601 41.8562 1.03962 39.0002V27.0415C0.444075 26.9016 0 26.3552 0 25.7022C0 25.0491 0.444075 24.5027 1.03962 24.3628V12.9998C5.86458 10.1416 10.6906 7.2849 15.5166 4.42853C15.4831 4.3083 15.4653 4.18149 15.4653 4.05066C15.4653 3.29198 16.0651 2.67693 16.805 2.67693C17.1832 2.67693 17.525 2.83773 17.7684 3.0961L23 0L23.149 0.0880737H23.1486ZM35.3896 35.5723C35.9391 35.5723 36.411 35.9118 36.6177 36.3971H38.2932L43.7483 26.709C43.4849 26.4583 43.3202 26.1001 43.3202 25.7025C43.3202 25.3049 43.4852 24.9471 43.7483 24.6961L38.2932 15.0076H36.7286C36.7289 15.0226 36.7293 15.0376 36.7293 15.0529C36.7293 15.8116 36.1295 16.4266 35.3896 16.4266C35.2524 16.4266 35.1198 16.4055 34.995 16.366C33.3759 19.2417 31.7575 22.1175 30.138 24.9928C30.4014 25.2439 30.5657 25.6017 30.5657 25.9993C30.5657 26.3965 30.401 26.7547 30.138 27.0054C31.7575 29.8807 33.3773 32.7557 34.9954 35.6318C35.1198 35.5927 35.2524 35.5715 35.3892 35.5715L35.3896 35.5723ZM36.7279 37.0125C36.694 37.7405 36.1077 38.3201 35.3896 38.3201C35.2524 38.3201 35.1198 38.2989 34.995 38.2594C33.3656 41.1534 31.7365 44.0482 30.1066 46.9422C30.1369 46.9714 30.1665 47.0017 30.194 47.0335L44.3602 38.6464V27.0415C44.3281 27.0339 44.2968 27.0255 44.2658 27.0156C42.3893 30.3478 40.5139 33.6803 38.6371 37.0125H36.7282H36.7279ZM34.4779 37.9524C34.2295 37.7156 34.0688 37.3831 34.0517 37.0125H25.9029L22.9996 31.8553C22.0317 33.5743 21.0637 35.293 20.0964 37.0125H11.9484C11.9312 37.3834 11.7705 37.7156 11.5221 37.9524L16.4116 46.6348C16.5359 46.5957 16.6682 46.5745 16.8054 46.5745C17.4423 46.5745 17.9751 47.0299 18.1116 47.6405H27.8895C28.026 47.0299 28.5588 46.5745 29.1953 46.5745C29.3329 46.5745 29.4651 46.5957 29.5899 46.6352L34.4786 37.9524H34.4779ZM34.1614 36.3967C34.2355 36.2224 34.3439 36.0671 34.4779 35.9395L29.6209 27.3131C29.4961 27.3525 29.3635 27.3737 29.2263 27.3737C28.609 27.3737 28.0894 26.9458 27.934 26.3636H26.0921L23.345 31.242L26.2479 36.3974H34.1614V36.3967ZM10.6101 35.5719C10.7473 35.5719 10.8795 35.5931 11.0046 35.6325C12.6234 32.7568 14.2418 29.8807 15.8613 27.0054C15.5986 26.7547 15.434 26.3965 15.434 25.9996C15.434 25.6024 15.5986 25.2446 15.8616 24.9935C14.2422 22.1182 12.6241 19.2421 11.005 16.3664C10.8802 16.4058 10.748 16.427 10.6104 16.427C9.87053 16.427 9.27071 15.812 9.27071 15.0533C9.27071 15.0379 9.27107 15.023 9.27142 15.008H7.70718L4.69594 20.3549L2.25139 24.6961C2.51477 24.9468 2.67942 25.3049 2.67942 25.7025C2.67942 26.1001 2.51441 26.4579 2.25139 26.709L7.70718 36.3971H9.38191C9.58862 35.9118 10.0609 35.5723 10.6101 35.5723V35.5719ZM11.5217 35.9395C11.6557 36.0671 11.7641 36.2228 11.8382 36.3967H19.7525L22.6546 31.2428L19.9075 26.3633H18.066C17.9106 26.9454 17.391 27.3734 16.7737 27.3734C16.6365 27.3734 16.5046 27.3522 16.3798 27.3131L13.9667 31.5983L11.5221 35.9395H11.5217ZM11.0042 38.259C10.8795 38.2982 10.7473 38.3197 10.6097 38.3197C9.89156 38.3197 9.30528 37.7401 9.27142 37.0121H7.36147C5.4843 33.6803 3.60963 30.3474 1.73354 27.0152C1.70253 27.0251 1.67117 27.0335 1.63909 27.0412V38.6461L15.8053 47.0332C15.8331 47.0014 15.862 46.971 15.8923 46.9422C14.2621 44.0482 12.6337 41.1534 11.0042 38.259ZM35.3896 13.6792C35.8957 13.6792 36.3365 13.9672 36.5643 14.3918H38.6367C40.5136 17.724 42.3907 21.0558 44.2658 24.3887C44.2968 24.3789 44.3281 24.3705 44.3598 24.3628V13.3532L33.6799 7.03018L30.1932 4.96575C30.1658 4.99717 30.1366 5.02751 30.1066 5.05638C31.7368 7.95038 33.3666 10.8444 34.9958 13.7391C35.1201 13.7 35.2527 13.6788 35.3896 13.6788V13.6792ZM34.4779 16.0594C34.2149 15.8083 34.0499 15.4505 34.0499 15.0529C34.0499 15.0376 34.0502 15.0226 34.0506 15.0076H26.2475L23.3446 20.1619C24.3721 21.9863 25.3996 23.8109 26.4264 25.6356H27.9337C28.0891 25.0535 28.6087 24.6255 29.226 24.6255C29.3632 24.6255 29.4958 24.6467 29.6205 24.6862L34.4779 16.0594ZM34.2152 14.3918C34.2844 14.2624 34.3735 14.1462 34.4779 14.0465L29.5891 5.36372C29.4644 5.40283 29.3322 5.42439 29.1946 5.42439C28.5581 5.42439 28.0249 4.96903 27.8888 4.35837H18.1109C17.9747 4.96903 17.4416 5.42439 16.8047 5.42439C16.6678 5.42439 16.5356 5.40319 16.4109 5.36409L13.9659 9.70528L11.5214 14.0465C11.6258 14.1462 11.7149 14.2628 11.7841 14.3918H20.0957C21.063 16.1109 22.0309 17.8296 22.9993 19.5483L25.9022 14.3918H34.2145H34.2152ZM10.6101 13.6792C10.7473 13.6792 10.8799 13.7004 11.0046 13.7399C12.6341 10.8455 14.2632 7.95075 15.8926 5.05674C15.8627 5.02824 15.8338 4.99791 15.8064 4.96684L1.6398 13.3539V24.3635C1.67152 24.3712 1.70324 24.3796 1.73389 24.3895C3.60999 21.0569 5.48502 17.7247 7.36218 14.3925H9.43537C9.66311 13.9679 10.104 13.6799 10.6101 13.6799V13.6792ZM11.9491 15.0076C11.9494 15.0226 11.9498 15.0376 11.9498 15.0529C11.9498 15.4505 11.7848 15.8087 11.5217 16.0594L16.3795 24.6858C16.5039 24.6467 16.6361 24.6255 16.7733 24.6255C17.3902 24.6255 17.9099 25.0535 18.0656 25.6356H19.5728L19.6213 25.5494L22.6546 20.1616L19.7525 15.0072H11.9487L11.9491 15.0076ZM27.9219 48.3784C27.9091 48.3382 27.898 48.2976 27.8888 48.256H18.1109C18.1016 48.2976 18.0906 48.3385 18.0774 48.3784L22.9996 51.2925L27.9215 48.3784H27.9219ZM27.8888 3.74295C27.898 3.70165 27.9091 3.66109 27.9219 3.62125L23 0.707147L18.0781 3.62125C18.0909 3.66109 18.102 3.70165 18.1112 3.74295H27.8891H27.8888ZM20.2628 25.6356H25.7368L23 20.7751L20.2628 25.6356ZM25.4018 26.3629H20.5975L22.9996 30.6292L25.4014 26.3629H25.4018Z" fill="#0F4C81"/>
</g>
<defs>
<clipPath id="clip0_303_26">
<rect width="165" height="52" fill="white"/>
</clipPath>
</defs>
</svg>
