<svg width="21" height="20" viewBox="0 0 21 20" fill="none" xmlns="http://www.w3.org/2000/svg">
    <path d="M19.4998 2.6092C18.9524 1.94679 18.2648 1.41406 17.4867 1.04937C16.7085 0.68468 15.8592 0.497119 14.9998 0.500195C13.5295 0.455674 12.098 0.976386 10.9998 1.9552C9.9017 0.976386 8.47019 0.455674 6.99982 0.500195C6.14047 0.497119 5.29113 0.68468 4.51299 1.04937C3.73486 1.41406 3.04729 1.94679 2.49982 2.6092C1.54682 3.7652 0.549824 5.8582 1.21082 9.2692C2.26582 14.7162 10.1768 19.1862 10.5108 19.3692C10.6597 19.4522 10.8274 19.4958 10.9978 19.4958C11.1683 19.4958 11.3359 19.4522 11.4848 19.3692C11.8208 19.1822 19.7318 14.7122 20.7848 9.2692C21.4498 5.8582 20.4528 3.7652 19.4998 2.6092ZM18.8258 8.8892C18.0798 12.7402 12.6578 16.3222 10.9998 17.3402C8.66382 15.9302 3.85782 12.3902 3.17882 8.8892C2.66582 6.2432 3.36782 4.7062 4.04782 3.8822C4.40743 3.44831 4.8586 3.09938 5.36898 2.86044C5.87936 2.62151 6.43629 2.49848 6.99982 2.5002C7.60172 2.45505 8.20503 2.56665 8.75096 2.8241C9.29688 3.08155 9.76677 3.47607 10.1148 3.9692C10.2007 4.12713 10.3273 4.25916 10.4815 4.35151C10.6357 4.44387 10.8118 4.49318 10.9916 4.4943C11.1713 4.49543 11.3481 4.44832 11.5034 4.3579C11.6588 4.26748 11.787 4.13704 11.8748 3.9802C12.2222 3.48323 12.6931 3.08537 13.2411 2.82585C13.7891 2.56632 14.3952 2.45408 14.9998 2.5002C15.5645 2.49745 16.1228 2.61997 16.6345 2.85894C17.1462 3.09792 17.5985 3.44739 17.9588 3.8822C18.6368 4.7062 19.3388 6.2432 18.8258 8.8892Z" fill="#2B2B2B"/>
</svg>

