<svg width="20" height="20" viewBox="0 0 20 20" fill="none" xmlns="http://www.w3.org/2000/svg">
<path fill-rule="evenodd" clip-rule="evenodd" d="M20 10C20 15.5228 15.5228 20 10 20C4.47717 20 0 15.5228 0 10C0 4.47717 4.47717 0 10 0C15.5228 0 20 4.47717 20 10ZM6.69646 9.08396C5.69471 9.52133 4.66546 9.97075 3.72427 10.4892C3.23282 10.849 3.88599 11.1035 4.49879 11.3423C4.59621 11.3802 4.69258 11.4178 4.78321 11.4553C4.85862 11.4785 4.93529 11.5029 5.013 11.5277C5.69454 11.7448 6.45446 11.9869 7.11613 11.6227C8.20304 10.9983 9.22875 10.2765 10.2537 9.55521C10.5895 9.31887 10.9252 9.08263 11.263 8.84987C11.2788 8.83975 11.2966 8.82817 11.3162 8.81554C11.6039 8.629 12.251 8.20954 12.0116 8.78754C11.4456 9.40654 10.8393 9.95446 10.2298 10.5054C9.81896 10.8767 9.40663 11.2494 9.00413 11.646C8.65358 11.9309 8.28954 12.5037 8.68208 12.9025C9.58621 13.5355 10.5045 14.153 11.4222 14.7703C11.7208 14.9711 12.0194 15.172 12.3174 15.3733C12.8225 15.7765 13.6119 15.4503 13.7229 14.8202C13.7723 14.5303 13.8219 14.2405 13.8715 13.9506C14.1455 12.3487 14.4195 10.7461 14.6617 9.13896C14.6946 8.88683 14.7319 8.63475 14.7692 8.38254C14.8597 7.77125 14.9503 7.15921 14.9785 6.54462C14.9056 5.93129 14.162 6.06617 13.7481 6.20408C11.621 7.0135 9.51504 7.88292 7.41746 8.76767C7.17983 8.87292 6.93896 8.97808 6.69646 9.08396Z" fill="#E8E8E8"/>
</svg>
