<svg width="24" height="24" viewBox="0 0 24 24" fill="none" xmlns="http://www.w3.org/2000/svg">
    <path d="M4.29341 18.293L10.5864 12L4.29341 5.70696C4.11125 5.51836 4.01045 5.26575 4.01273 5.00356C4.01501 4.74136 4.12018 4.49055 4.30559 4.30514C4.491 4.11973 4.74181 4.01456 5.00401 4.01228C5.2662 4.01001 5.5188 4.1108 5.70741 4.29296L12.0004 10.586L18.2934 4.29296C18.3857 4.19745 18.496 4.12127 18.618 4.06886C18.74 4.01645 18.8712 3.98886 19.004 3.98771C19.1368 3.98655 19.2685 4.01186 19.3914 4.06214C19.5143 4.11242 19.6259 4.18667 19.7198 4.28056C19.8137 4.37446 19.8879 4.48611 19.9382 4.60901C19.9885 4.7319 20.0138 4.86358 20.0127 4.99636C20.0115 5.12914 19.9839 5.26036 19.9315 5.38236C19.8791 5.50437 19.8029 5.61471 19.7074 5.70696L13.4144 12L19.7074 18.293C19.8029 18.3852 19.8791 18.4956 19.9315 18.6176C19.9839 18.7396 20.0115 18.8708 20.0127 19.0036C20.0138 19.1363 19.9885 19.268 19.9382 19.3909C19.8879 19.5138 19.8137 19.6255 19.7198 19.7194C19.6259 19.8132 19.5143 19.8875 19.3914 19.9378C19.2685 19.9881 19.1368 20.0134 19.004 20.0122C18.8712 20.0111 18.74 19.9835 18.618 19.9311C18.496 19.8787 18.3857 19.8025 18.2934 19.707L12.0004 13.414L5.70741 19.707C5.5188 19.8891 5.2662 19.9899 5.00401 19.9876C4.74181 19.9854 4.491 19.8802 4.30559 19.6948C4.12018 19.5094 4.01501 19.2586 4.01273 18.9964C4.01045 18.7342 4.11125 18.4816 4.29341 18.293Z" fill="#2B2B2B"/>
</svg>

