<svg width="20" height="20" viewBox="0 0 20 20" fill="none" xmlns="http://www.w3.org/2000/svg">
    <path d="M3.62379 14.2488C3.23327 14.6393 2.6001 14.6393 2.20958 14.2488C1.81906 13.8583 1.81906 13.2251 2.20958 12.8346L3.62379 14.2488ZM10 6.45837L9.29291 5.75127C9.48045 5.56373 9.7348 5.45837 10 5.45837C10.2652 5.45837 10.5196 5.56373 10.7071 5.75127L10 6.45837ZM17.7905 12.8346C18.181 13.2251 18.181 13.8583 17.7905 14.2488C17.3999 14.6393 16.7668 14.6393 16.3762 14.2488L17.7905 12.8346ZM2.20958 12.8346L9.29291 5.75127L10.7071 7.16548L3.62379 14.2488L2.20958 12.8346ZM10.7071 5.75127L17.7905 12.8346L16.3762 14.2488L9.29291 7.16548L10.7071 5.75127Z" fill="#717171"/>
</svg>



