<svg width="24" height="24" viewBox="0 0 24 24" fill="none" xmlns="http://www.w3.org/2000/svg">
<path d="M3.624 15C5.00874 16.3867 6.85277 17.2191 8.8087 17.3405C10.7646 17.4619 12.6974 16.8638 14.243 15.659L19.561 20.977C19.7496 21.1592 20.0022 21.2599 20.2644 21.2577C20.5266 21.2554 20.7774 21.1502 20.9628 20.9648C21.1482 20.7794 21.2534 20.5286 21.2557 20.2664C21.258 20.0042 21.1572 19.7516 20.975 19.563L15.657 14.245C16.9153 12.6302 17.5102 10.5961 17.3204 8.55776C17.1306 6.51939 16.1703 4.63019 14.6355 3.27546C13.1006 1.92073 11.1068 1.20251 9.06066 1.26727C7.01449 1.33204 5.07009 2.17491 3.624 3.624C2.8768 4.37082 2.28406 5.25754 1.87966 6.23351C1.47525 7.20948 1.26711 8.25556 1.26711 9.312C1.26711 10.3684 1.47525 11.4145 1.87966 12.3905C2.28406 13.3664 2.8768 14.2532 3.624 15ZM5.038 5.04C6.02657 4.05144 7.32732 3.43624 8.71863 3.29919C10.1099 3.16215 11.5057 3.51174 12.6682 4.28842C13.8306 5.06509 14.6878 6.22079 15.0937 7.55861C15.4996 8.89643 15.4291 10.3336 14.8942 11.6253C14.3592 12.9169 13.393 13.9831 12.1601 14.6423C10.9272 15.3014 9.50393 15.5127 8.13272 15.2401C6.76152 14.9675 5.52724 14.2279 4.6402 13.1473C3.75315 12.0668 3.26821 10.712 3.268 9.314C3.26526 8.51957 3.4203 7.73251 3.72415 6.99848C4.02799 6.26445 4.47458 5.59806 5.038 5.038V5.04Z" fill="#E8E8E8"/>
</svg>
